PathFileType	4	(X/Y/Z)	./resultDataOpenSim/trcMotMarkerGrf/sub06/qtm-12-06.trc
DataRate	CameraRate	NumFrames	NumMarkers	Units	OrigDataRate	OrigDataStartFrame	OrigNumFrames
250.000000	250.000000	7	24	m	250.000000	471	538
Frame#	Time	L.Toe.Tip			R.Toe.Tip			L.Ankle.Lat			R.Ankle.Lat			L.Ankle.Med			R.Ankle.Med			L.Heel			R.Heel			L.Knee.Lat			R.Knee.Lat			L.Knee.Med			R.Knee.Med			L.Thigh.Upper			R.Thigh.Upper			L.ASIS			R.ASIS			V.Sacral			L.Acromium			R.Acromium			C7			L.Elbow			R.Elbow			L.Wrist.Lat			R.Wrist.Lat
		X1	Y1	Z1	X2	Y2	Z2	X3	Y3	Z3	X4	Y4	Z4	X5	Y5	Z5	X6	Y6	Z6	X7	Y7	Z7	X8	Y8	Z8	X9	Y9	Z9	X10	Y10	Z10	X11	Y11	Z11	X12	Y12	Z12	X13	Y13	Z13	X14	Y14	Z14	X15	Y15	Z15	X16	Y16	Z16	X17	Y17	Z17	X18	Y18	Z18	X19	Y19	Z19	X20	Y20	Z20	X21	Y21	Z21	X22	Y22	Z22	X23	Y23	Z23	X24	Y24	Z24

471	1.88	1.6787408	0.033892005	-0.029530921	1.390539	0.087823118	0.13965345	1.5549081	0.067353969	-0.064552392	1.336221	0.21656593	0.14056377	1.5525092	0.084678936	0.021551074	1.3837638	0.20808144	0.066032072	1.4777086	0.041327767	-0.02497682	1.3002399	0.23883736	0.071662154	1.6276958	0.43589583	-0.085237882	1.6266019	0.45594706	0.19683123	1.5901358	0.44072612	0.030423678	1.6437695	0.43141108	0.064425307	1.5630843	0.82285693	-0.17215871	1.4908209	0.80632315	0.16621162	1.6266128	0.87098569	-0.11864598	1.596788	0.86640881	0.12710126	1.4205252	0.93930211	-0.013124827	1.5502229	1.3451855	-0.19487925	1.5254157	1.3441754	0.16836495	1.4540524	1.3779434	-0.020619222	1.4998562	1.0235884	-0.23536948	1.4666368	1.028644	0.24657153	1.6644012	0.83721573	-0.2510615	1.6601153	0.87502959	0.21732246
472	1.884	1.6787687	0.033905064	-0.029525122	1.4083318	0.087381831	0.14230669	1.554914	0.067508363	-0.064568134	1.3507559	0.21408346	0.14226506	1.5521241	0.084764467	0.02151582	1.3976481	0.20628267	0.067408065	1.4777448	0.041573021	-0.024927016	1.3139728	0.23542639	0.071909348	1.6283301	0.43591381	-0.085343625	1.6367463	0.45884972	0.1967049	1.5904299	0.44089252	0.030642353	1.6536431	0.43486106	0.064208618	1.567516	0.82342644	-0.17220847	1.5059119	0.80659863	0.16567845	1.6311923	0.87190804	-0.11930592	1.602234	0.86830154	0.12630896	1.4259734	0.94040871	-0.013248849	1.5556525	1.3468668	-0.19475671	1.5307156	1.3452474	0.16831219	1.4593397	1.379027	-0.020608422	1.5073232	1.0245518	-0.23552989	1.4691133	1.0304782	0.24613901	1.6758813	0.84107707	-0.24947272	1.6593153	0.87214561	0.22009714
473	1.888	1.6788146	0.033915961	-0.02952974	1.4264543	0.086873853	0.14490919	1.5549283	0.067671711	-0.064609095	1.3655668	0.21138866	0.14400991	1.5516769	0.084843596	0.021481343	1.4116422	0.20434914	0.068754379	1.4777909	0.04185001	-0.024908599	1.32791	0.23174525	0.07206079	1.6289787	0.43591688	-0.085461706	1.6468354	0.46171161	0.19649763	1.5906767	0.44106184	0.030867341	1.6634153	0.43835522	0.063846603	1.5722729	0.82398332	-0.17218211	1.5195373	0.80719209	0.16527219	1.6359776	0.87280856	-0.11990762	1.6078431	0.87014872	0.1255286	1.4314441	0.9413446	-0.013349049	1.561062	1.34844	-0.19464933	1.5360427	1.3462461	0.16823674	1.4646267	1.3800581	-0.020606145	1.5147523	1.0255017	-0.23569706	1.4715568	1.032228	0.24567108	1.6873293	0.84500701	-0.24786155	1.6584556	0.86936315	0.22289499
474	1.892	1.6788757	0.033920967	-0.029545178	1.4448329	0.086313464	0.14745433	1.5549504	0.067837596	-0.064663226	1.3803402	0.20856616	0.14568568	1.5512897	0.084952962	0.021449098	1.4257149	0.20229686	0.069996447	1.4778474	0.042149545	-0.024899237	1.3416761	0.22770048	0.072670993	1.6296437	0.43590342	-0.085591789	1.6568216	0.4645343	0.19620584	1.5914817	0.44121831	0.030940772	1.6729609	0.44177391	0.063426199	1.5770103	0.82452044	-0.17206941	1.5309947	0.80820353	0.16503379	1.6410565	0.87368384	-0.12044354	1.6137073	0.87192783	0.12479492	1.4368887	0.94215594	-0.013330511	1.5664601	1.3499129	-0.19455648	1.5413872	1.3471661	0.16815122	1.4699118	1.3810225	-0.020593337	1.5221821	1.0264223	-0.23589722	1.4742101	1.0339328	0.24521679	1.6987403	0.8489963	-0.24622505	1.6575239	0.86668034	0.22570956
475	1.896	1.6789476	0.033919515	-0.029568998	1.4631319	0.085663353	0.14994148	1.5549844	0.068001383	-0.064716286	1.3949293	0.20566361	0.14726288	1.5509246	0.085072263	0.021417076	1.4398722	0.2001117	0.071162905	1.4779188	0.042451129	-0.02487354	1.3552203	0.22333376	0.073778295	1.6303273	0.43587441	-0.085731653	1.6666607	0.46730256	0.19582729	1.5931713	0.441367	0.030797519	1.6821808	0.44504726	0.063038325	1.5816291	0.82506169	-0.17178822	1.5401414	0.80955306	0.16526922	1.6462237	0.87450964	-0.1209474	1.6197287	0.87363563	0.1240971	1.4422787	0.94292868	-0.013116793	1.5718499	1.3513062	-0.19447018	1.54674	1.3479991	0.16807689	1.4751936	1.3819222	-0.020554085	1.5296263	1.0273026	-0.23613918	1.47709	1.0355935	0.24479517	1.7100802	0.85303754	-0.24456283	1.6565045	0.8641024	0.22853993
476	1.9	1.6790257	0.033913062	-0.029597563	1.4811201	0.084891537	0.15237895	1.5550354	0.06816399	-0.064757023	1.4093983	0.20267553	0.14878657	1.5505717	0.08518635	0.021378686	1.4541345	0.19776442	0.072336948	1.4780053	0.042742875	-0.024811815	1.3687093	0.2187353	0.075173312	1.6310248	0.43583327	-0.085876	1.6763441	0.469991	0.19536719	1.5953314	0.44149972	0.030585419	1.6910665	0.44819188	0.062713718	1.5861896	0.82563324	-0.17132839	1.5465481	0.81123918	0.16636729	1.6510125	0.87526239	-0.12148196	1.6257936	0.87527564	0.12341808	1.4476539	0.94371006	-0.012726724	1.577228	1.3526345	-0.19437228	1.552096	1.3487441	0.16803126	1.4804771	1.3827688	-0.020492114	1.5370763	1.0281388	-0.23641434	1.4801036	1.0371779	0.24440734	1.7212635	0.8571323	-0.24287372	1.6553888	0.86163329	0.23138505
477	1.904	1.6791049	0.033903405	-0.02962536	1.4987723	0.083997963	0.15476771	1.5551037	0.06833056	-0.06477526	1.4238424	0.19957155	0.15028862	1.5503916	0.085336555	0.021334773	1.4685054	0.19524791	0.073562193	1.4780991	0.043034698	-0.024706188	1.3823581	0.21397452	0.076684444	1.6317267	0.43578551	-0.086019384	1.6858914	0.4725842	0.19483476	1.5969749	0.44158541	0.030574163	1.6996598	0.45124783	0.062407287	1.5906571	0.82621882	-0.17094176	1.5509158	0.81315416	0.16810505	1.6552381	0.87594558	-0.12205593	1.6318332	0.87685098	0.12275604	1.4530596	0.94449892	-0.012262452	1.5825902	1.3538978	-0.19424733	1.5574502	1.3494068	0.16801843	1.4857669	1.3835657	-0.020427389	1.5445218	1.028932	-0.23670953	1.4832259	1.0386771	0.24406183	1.73213	0.86129362	-0.24116297	1.6541848	0.85927165	0.23424167
